# xmcd CD database file
#
# Track frame offsets:
#	150
#	13515
#	29312
#	45307
#	62124
#	79518
#	98447
#	114053
#	136022
#	155649
#	171744
#	184315
#	198351
#	215430
#	233634
#	249414
#	267965
#	285965
#
# Disc length: 4042 seconds
#
# Revision: 1
# Processed by: cddbd v1.5.2PL0 Copyright (c) Steve Scherf et al.
# Submitted via: jetAudio 7
#
DISCID=e40fc812
DTITLE=Various Artist - There's More To Country 2 CD 2
DYEAR=2008
DGENRE=Country
TTITLE0=Countrified Soul
TTITLE1=Little WildFlower
TTITLE2=Lost In A Moment
TTITLE3=Because Of You
TTITLE4=We're Young and Beautiful
TTITLE5=Me and Charlie Talking
TTITLE6=There's No Limit
TTITLE7=What You Give Away
TTITLE8=Stealing Kisses
TTITLE9=Save Yourself
TTITLE10=Counting Down The Days
TTITLE11=Regular Guy
TTITLE12=Hope For Me Yet
TTITLE13=Real Smooth Cowboy
TTITLE14=Banjo Boy
TTITLE15=Driving Into The Sun
TTITLE16=Same Old Brand New
TTITLE17=One For The Ride
EXTD=
EXTT0=
EXTT1=
EXTT2=
EXTT3=
EXTT4=
EXTT5=
EXTT6=
EXTT7=
EXTT8=
EXTT9=
EXTT10=
EXTT11=
EXTT12=
EXTT13=
EXTT14=
EXTT15=
EXTT16=
EXTT17=
PLAYORDER=
